<svg xmlns="http://www.w3.org/2000/svg" width="20" height="20" fill="none" viewBox="0 0 20 20">
  <rect width="20" height="20" fill="#EB6130" rx="10"/>
  <path fill="#F9F9FA" d="M12.5 7.985a1.677 1.677 0 0 1-.378 1.076 3.416 3.416 0 0 1-.373.386c-.133.122-.269.24-.406.355a5.012 5.012 0 0 0-.378.35 1.571 1.571 0 0 0-.278.417 1.278 1.278 0 0 0-.122.502l-.012.229H9.508v-.28a1.743 1.743 0 0 1 .367-1.086 4.2 4.2 0 0 1 .361-.396c.134-.129.265-.25.395-.365a5.44 5.44 0 0 0 .362-.35 1.5 1.5 0 0 0 .267-.392.993.993 0 0 0 .105-.446c0-.328-.114-.582-.344-.762-.23-.179-.557-.269-.98-.269-.415 0-.75.112-1.006.335-.256.22-.384.565-.384 1.036v.294H7.5v-.396c0-.362.069-.687.206-.974a1.88 1.88 0 0 1 .556-.7 2.54 2.54 0 0 1 .806-.407A3.25 3.25 0 0 1 10.042 6c.752 0 1.35.174 1.79.523.445.348.668.836.668 1.462ZM10.03 14a.729.729 0 0 1-.5-.188.611.611 0 0 1 0-.914.708.708 0 0 1 .5-.197c.2 0 .37.066.507.197a.61.61 0 0 1 .211.462c0 .173-.07.324-.211.452a.723.723 0 0 1-.506.188Z"/>
</svg>
