<svg xmlns="http://www.w3.org/2000/svg" width="23" height="17" fill="none" viewBox="0 0 23 17">
  <path fill="#BCBCC2" d="M11.5.688C6.292.688 1.844 3.928.042 8.5c1.802 4.573 6.25 7.813 11.458 7.813 5.209 0 9.657-3.24 11.459-7.813C21.157 3.927 16.709.687 11.5.687Zm0 13.02A5.21 5.21 0 0 1 6.292 8.5 5.21 5.21 0 0 1 11.5 3.292 5.21 5.21 0 0 1 16.71 8.5a5.21 5.21 0 0 1-5.209 5.208Zm0-8.333A3.12 3.12 0 0 0 8.375 8.5a3.12 3.12 0 0 0 3.125 3.125A3.12 3.12 0 0 0 14.625 8.5 3.12 3.12 0 0 0 11.5 5.375Z"/>
</svg>
