<svg xmlns="http://www.w3.org/2000/svg" width="52" height="52" fill="none" viewBox="0 0 52 52">
  <path fill="#161616" fill-rule="evenodd" d="M26.009.918c4.026 0 7.83.97 11.207 2.7l9.86-3.341-.324 11.878A25.494 25.494 0 0 1 51 26.3c0 14.007-11.19 25.366-24.991 25.366C12.19 51.667 1 40.308 1 26.3a25.551 25.551 0 0 1 4.538-14.579L5.23 0l10.03 3.394A24.3 24.3 0 0 1 26.01.918Z" clip-rule="evenodd"/>
  <path fill="#EB6130" fill-rule="evenodd" d="m8.779 11.341-.375.537L8.25 12a23.117 23.117 0 0 0-4.879 13.073h21.546v-5.195c-3.02-.952-3.43-3.913 1.04-3.67 4.47-.243 4.06 2.718 1.04 3.67v5.195H48.63C47.998 12.934 38.12 3.29 26.009 3.29c-6.892 0-13.068 3.117-17.23 8.051Zm2.166 16.189h2.986c.068 4.156 1.296 14.596-3.685 15.289 3.838 3.775 8.973 6.181 14.67 6.458V44.55c-4.827-1.264-5.646-5.61 1.229-5.61 7.045 0 6.005 4.572.853 5.697v4.64c5.749-.26 10.952-2.683 14.807-6.51-4.606-1.004-3.463-11.133-3.412-15.237h2.866c.051 3.117-.87 12.9 2.32 13.298a23.16 23.16 0 0 0 5.05-13.298H3.37a22.97 22.97 0 0 0 5.067 13.298c3.701.121 2.558-10.216 2.507-13.298Z" clip-rule="evenodd"/>
  <path fill="#161616" fill-rule="evenodd" d="M39.484 20.466h8.547c1.04 0 1.877.71 1.877 1.575 0 .866-.836 1.576-1.877 1.576h-8.547c-1.023 0-1.859-.71-1.859-1.576 0-.865.836-1.575 1.86-1.575Zm-35.26 0h8.206c.99 0 1.808.71 1.808 1.575 0 .866-.819 1.576-1.808 1.576H4.224c-.99 0-1.808-.71-1.808-1.576 0-.865.819-1.575 1.808-1.575Zm2.214-5.437 6.67 1.506c1.04.225 1.638 1.108 1.365 1.94-.29.83-1.382 1.332-2.405 1.09l-6.67-1.489c-1.041-.225-1.655-1.108-1.365-1.94.29-.848 1.365-1.332 2.405-1.107Zm38.828.381-6.483 1.298c-1.006.208-1.586.97-1.313 1.697.273.727 1.33 1.16 2.337.952l6.482-1.298c1.007-.208 1.604-.97 1.314-1.697-.273-.727-1.33-1.16-2.337-.952Z" clip-rule="evenodd"/>
  <path fill="#EB6130" fill-rule="evenodd" d="M39.706 5.074a24.765 24.765 0 0 1 5.289 4.744l.188-6.96-5.75 1.939.273.277ZM7.294 9.471a25.59 25.59 0 0 1 5.083-4.45l.478-.502L7.123 2.58l.17 6.891Z" clip-rule="evenodd"/>
  <path fill="#161616" fill-rule="evenodd" d="M19.393 10.873c1.16 0 2.098.952 2.098 2.13 0 1.177-.938 2.13-2.098 2.13a2.116 2.116 0 0 1-2.116-2.13c0-1.178.939-2.13 2.116-2.13Zm13.233 0c1.16 0 2.115.952 2.115 2.13 0 1.177-.955 2.13-2.115 2.13-1.16 0-2.099-.953-2.099-2.13 0-1.178.939-2.13 2.099-2.13ZM19.393 31.824c1.16 0 2.098.952 2.098 2.13 0 1.177-.938 2.13-2.098 2.13a2.116 2.116 0 0 1-2.116-2.13c0-1.178.939-2.13 2.116-2.13Zm13.233 0c1.16 0 2.115.952 2.115 2.13 0 1.177-.955 2.13-2.115 2.13-1.16 0-2.099-.953-2.099-2.13 0-1.178.939-2.13 2.099-2.13Z" clip-rule="evenodd"/>
</svg>
